<svg xmlns="http://www.w3.org/2000/svg" viewBox="0 0 221.827 221.827" height="838.4" width="838.4"><defs><filter height="1.048" y="-.024" width="1.048" x="-.024" id="b" style="color-interpolation-filters:sRGB"><feGaussianBlur stdDeviation="2.117"/></filter><filter height="1.019" y="-.01" width="1.019" x="-.01" id="a" style="color-interpolation-filters:sRGB"><feGaussianBlur stdDeviation=".847"/></filter></defs><path style="opacity:1;fill:#fff;fill-opacity:1;stroke:none;stroke-width:4.23333263;stroke-linecap:round;stroke-linejoin:miter;stroke-miterlimit:4;stroke-dasharray:none;stroke-opacity:1;paint-order:normal" d="M5.08 79.195h211.667v211.667H5.08z" transform="translate(0 -75.173)"/><path style="fill:#f58025;fill-opacity:1;fill-rule:nonzero;stroke:none" d="M0 0c-10.423 10.182-19.435 14.428-31.371 14.428-23.47 0-41.943-19.428-41.943-44.129 0-25.931 17.876-44.209 43.066-44.209 11.374 0 20.227 4.06 30.248 14.074v-29.506c-11.363-5.366-20.594-7.476-31.371-7.476-38.112 0-67.741 29.272-67.741 66.96 0 37.346 30.395 67.203 68.314 67.203 10.789 0 19.813-2.27 30.798-7.889z" transform="matrix(.2254 0 0 -.2254 39.94 22.203)"/><path style="fill:#f58025;fill-opacity:1;fill-rule:nonzero;stroke:none" d="M0 0c0-12.892 10.574-23.493 23.473-23.493 12.885 0 23.298 10.399 23.298 23.333 0 13.071-10.413 23.482-23.298 23.482C10.389 23.322 0 12.911 0 0m67.57 41.587v-83.349H44.294v10.789C36.736-40.2 28.483-44.445 17.109-44.445c-23.643 0-41.176 19.094-41.176 44.686 0 24.98 17.727 44.041 40.821 44.041 11.169 0 19.444-4.025 27.54-13.45v10.755z" transform="matrix(.2254 0 0 -.2254 46.148 33.965)"/><text transform="translate(46.148 33.965) scale(.2254)" y="542.321" x="-132.976" style="font-style:normal;font-variant:normal;font-weight:400;font-stretch:normal;font-size:405.74465942px;line-height:1.25;font-family:'ITC Avant Garde Gothic Book';-inkscape-font-specification:'ITC Avant Garde Gothic Book, ';text-align:start;letter-spacing:0;word-spacing:0;text-anchor:start;fill:#666;fill-opacity:1;stroke:none;stroke-width:7.6077137" xml:space="preserve"><tspan dx="0 0 -15.618242 -37.483784" style="font-style:normal;font-variant:normal;font-weight:400;font-stretch:normal;font-family:'ITC Avant Garde Gothic Book';-inkscape-font-specification:'ITC Avant Garde Gothic Book, ';fill:#666;stroke-width:7.6077137" y="542.321" x="-132.976">2018</tspan></text><text transform="translate(46.148 33.965) scale(.2254)" y="611.783" x="-117.157" style="font-style:normal;font-variant:normal;font-weight:400;font-stretch:normal;font-size:72.68054962px;line-height:1.25;font-family:Roboto;-inkscape-font-specification:Roboto;text-align:start;letter-spacing:0;word-spacing:0;text-anchor:start;fill:#f58025;fill-opacity:1;stroke:none;stroke-width:1.36276042" xml:space="preserve"><tspan style="font-style:normal;font-variant:normal;font-weight:400;font-stretch:normal;font-family:'ITC Avant Garde Gothic';-inkscape-font-specification:'ITC Avant Garde Gothic';fill:#f58025;fill-opacity:1;stroke-width:1.36276042" y="611.783" x="-117.157">Conectividad <tspan style="fill:#666">-</tspan> Productividad</tspan></text><path style="fill:#f58025;fill-opacity:1;fill-rule:nonzero;stroke:none" d="M0 0v-12.696C5.985-2.125 13.678 2.695 24.239 2.695c3.68 0 5.986-.367 10.215-2.133l-3.268-21.694c-4.047 2.026-6.752 2.867-10.971 2.867C6.557-18.265 0-26.372 0-43.283v-40.066h-23.265V0z" transform="matrix(.2254 0 0 -.2254 68.225 24.591)"/><path style="fill:#f58025;fill-opacity:1;fill-rule:nonzero;stroke:none" d="M0 0c-2.545 10.779-9.425 16.576-19.644 16.576-10.592 0-17.518-5.973-19.627-16.576zm-40.201-14.813c.54-14.436 7.682-22.347 20.557-22.347 8.648 0 14.438 3.298 19.644 11.179l21.556-3.455C14.607-46.379.367-55.429-19.069-55.429c-27.334 0-45.049 17.34-45.049 44.285 0 26.968 17.13 44.442 43.684 44.442 26.383 0 42.771-17.131 42.771-44.649v-3.462z" transform="matrix(.2254 0 0 -.2254 89.528 31.49)"/><path style="fill:#f58025;fill-opacity:1;fill-rule:nonzero;stroke:none" d="M0 0c-4.976 3.897-9.195 5.591-13.793 5.591-5.228 0-9.092-3.047-9.092-6.911 0-4.024 2.316-5.583 13.288-9.447 19.642-6.892 25.41-12.865 25.41-25.97 0-17.487-14.425-29.827-34.994-29.827-12.166 0-23.517 5.015-31.613 13.832l12.098 14.263c6.8-6.731 12.956-9.825 19.675-9.825 6.168 0 10.779 3.859 10.779 9.306 0 4.785-2.318 6.493-12.923 10.334-10.376 3.887-12.27 4.663-15.914 7.316-5.619 3.864-8.313 9.608-8.313 17.163 0 15.56 12.337 26.706 29.259 26.706 10.986 0 19.437-2.684 27.703-8.818z" transform="matrix(.2254 0 0 -.2254 105.156 28.98)"/><path style="fill:#f58025;fill-opacity:1;fill-rule:nonzero;stroke:none" d="M0 0h-23.286v63.147h-9.231v20.202h9.231v28.482H0V83.349h16.58V63.147H0z" transform="matrix(.2254 0 0 -.2254 115.7 43.378)"/><path style="fill:#f58025;fill-opacity:1;fill-rule:nonzero;stroke:none" d="M0 0v-12.696C5.997-2.125 13.645 2.695 24.262 2.695c3.624 0 5.952-.367 10.183-2.133l-3.268-21.694c-4.035 2.026-6.743 2.867-10.973 2.867C6.537-18.265 0-26.372 0-43.283v-40.066h-23.299V0z" transform="matrix(.2254 0 0 -.2254 125.681 24.591)"/><path style="fill:#f58025;fill-opacity:1;fill-rule:nonzero;stroke:none" d="M0 0c-2.477 10.779-9.402 16.576-19.606 16.576-10.596 0-17.521-5.973-19.62-16.576zm-40.199-14.813c.607-14.436 7.727-22.347 20.593-22.347 8.657 0 14.435 3.298 19.606 11.179l21.58-3.455C14.643-46.379.39-55.429-19.067-55.429c-27.266 0-44.981 17.34-44.981 44.285 0 26.968 17.128 44.442 43.672 44.442 26.396 0 42.713-17.131 42.713-44.649v-3.462z" transform="matrix(.2254 0 0 -.2254 146.977 31.49)"/><path style="fill:#f58025;fill-opacity:1;fill-rule:nonzero;stroke:none" d="M0 0c0-12.892 10.595-23.493 23.528-23.493 12.865 0 23.253 10.399 23.253 23.333 0 13.071-10.388 23.482-23.253 23.482C10.399 23.322 0 12.911 0 0m67.58 41.587v-83.349H44.315v10.789C36.771-40.2 28.527-44.445 17.107-44.445c-23.608 0-41.139 19.094-41.139 44.686 0 24.98 17.725 44.041 40.785 44.041 11.19 0 19.456-4.025 27.562-13.45v10.755z" transform="matrix(.2254 0 0 -.2254 158.235 33.965)"/><path style="fill:#f58025;fill-opacity:1;fill-rule:nonzero;stroke:none" d="M0 0v-9.597C7.831-.574 15.03 2.695 26.164 2.695c10.779 0 18.86-4.82 25.19-15.204C57.925-2.316 66.938 2.695 78.69 2.695c18.298 0 27.932-11.126 27.932-32.116v-53.928H83.334v45.627c0 14.627-4.059 20.57-14.068 20.57-10.56 0-15.972-7.87-15.972-23.471v-42.726H30.051v44.297c0 7.131-.424 10.789-1.822 13.851-1.88 4.781-7.076 8.049-12.463 8.049-5.172 0-10.779-3.05-13.107-7.488C.755-28.08 0-32.552 0-40.623v-42.726h-23.321V0z" transform="matrix(.2254 0 0 -.2254 180.348 24.591)"/><path style="opacity:1;fill:#f58025;fill-opacity:1;stroke:none;stroke-width:2.11666656;stroke-linecap:round;stroke-linejoin:miter;stroke-miterlimit:4;stroke-dasharray:none;stroke-opacity:1;paint-order:normal" d="M6.735 171.276h292.607v60.991H6.735z" transform="matrix(.63893 0 0 .63893 13.122 -63.012)"/><text xml:space="preserve" style="font-style:normal;font-variant:normal;font-weight:400;font-stretch:normal;font-size:60.27819824px;line-height:1.25;font-family:'ITC Avant Garde Gothic';-inkscape-font-specification:'ITC Avant Garde Gothic';text-align:start;letter-spacing:0;word-spacing:0;text-anchor:start;fill:#fff;fill-opacity:1;stroke:none;stroke-width:1.13021624" x="13.878" y="219.693" transform="matrix(.63893 0 0 .63893 13.122 -63.012)"><tspan x="13.878" y="219.693" style="font-style:normal;font-variant:normal;font-weight:400;font-stretch:normal;font-family:'ITC Avant Garde Gothic';-inkscape-font-specification:'ITC Avant Garde Gothic';fill:#fff;stroke-width:1.13021624" dx="0 0 0 0 0 -2.245064 -1.4967093 0 0 -1.4967093 0 0 -1.122532">Digital Fairs</tspan></text><text y="267.461" x="110.817" style="font-style:normal;font-variant:normal;font-weight:400;font-stretch:normal;font-size:16.93333244px;line-height:1;font-family:Roboto;-inkscape-font-specification:Roboto;text-align:center;letter-spacing:0;word-spacing:0;text-anchor:middle;fill:#155196;fill-opacity:1;stroke:none;stroke-width:.26458332" xml:space="preserve" transform="translate(0 -75.173)"><tspan style="font-size:16.93333244px;line-height:1;text-align:center;text-anchor:middle;fill:#155196;fill-opacity:1;stroke-width:.26458332" y="267.461" x="112.917">Asiste con nosotros y </tspan><tspan style="font-size:16.93333244px;line-height:1;text-align:center;text-anchor:middle;fill:#155196;fill-opacity:1;stroke-width:.26458332" y="284.395" x="110.817">sorprendete</tspan></text><path style="opacity:.2;fill:#000;fill-opacity:1;stroke:none;stroke-width:4.23333263;stroke-linecap:round;stroke-linejoin:miter;stroke-miterlimit:4;stroke-dasharray:none;stroke-opacity:1;paint-order:normal;filter:url(#a)" d="M5.08 79.724h211.667v211.667H5.08z" transform="translate(0 -75.173)"/><path style="opacity:.3;fill:#000;fill-opacity:1;stroke:none;stroke-width:4.23333263;stroke-linecap:round;stroke-linejoin:miter;stroke-miterlimit:4;stroke-dasharray:none;stroke-opacity:1;paint-order:normal;filter:url(#b)" d="M5.08 80.253h211.667V291.92H5.08z" transform="translate(0 -75.173)"/><path style="opacity:1;fill:#fff;fill-opacity:1;stroke:none;stroke-width:4.23333263;stroke-linecap:round;stroke-linejoin:miter;stroke-miterlimit:4;stroke-dasharray:none;stroke-opacity:1;paint-order:normal" d="M5.08 79.195h211.667v211.667H5.08z" transform="translate(0 -75.173)"/><g><path style="fill:#f58025;fill-opacity:1;fill-rule:nonzero;stroke:none" d="M0 0c-10.423 10.182-19.435 14.428-31.371 14.428-23.47 0-41.943-19.428-41.943-44.129 0-25.931 17.876-44.209 43.066-44.209 11.374 0 20.227 4.06 30.248 14.074v-29.506c-11.363-5.366-20.594-7.476-31.371-7.476-38.112 0-67.741 29.272-67.741 66.96 0 37.346 30.395 67.203 68.314 67.203 10.789 0 19.813-2.27 30.798-7.889z" transform="matrix(.2254 0 0 -.2254 39.94 22.203)"/><path style="fill:#f58025;fill-opacity:1;fill-rule:nonzero;stroke:none" d="M0 0c0-12.892 10.574-23.493 23.473-23.493 12.885 0 23.298 10.399 23.298 23.333 0 13.071-10.413 23.482-23.298 23.482C10.389 23.322 0 12.911 0 0m67.57 41.587v-83.349H44.294v10.789C36.736-40.2 28.483-44.445 17.109-44.445c-23.643 0-41.176 19.094-41.176 44.686 0 24.98 17.727 44.041 40.821 44.041 11.169 0 19.444-4.025 27.54-13.45v10.755z" transform="matrix(.2254 0 0 -.2254 46.148 33.965)"/><text transform="translate(46.148 33.965) scale(.2254)" y="542.321" x="-132.976" style="font-style:normal;font-variant:normal;font-weight:400;font-stretch:normal;font-size:405.74465942px;line-height:1.25;font-family:'ITC Avant Garde Gothic Book';-inkscape-font-specification:'ITC Avant Garde Gothic Book, ';text-align:start;letter-spacing:0;word-spacing:0;text-anchor:start;fill:#666;fill-opacity:1;stroke:none;stroke-width:7.6077137" xml:space="preserve"><tspan dx="0 0 -15.618242 -37.483784" style="font-style:normal;font-variant:normal;font-weight:400;font-stretch:normal;font-family:'ITC Avant Garde Gothic Book';-inkscape-font-specification:'ITC Avant Garde Gothic Book, ';fill:#666;stroke-width:7.6077137" y="542.321" x="-132.976">2018</tspan></text><text transform="translate(46.148 33.965) scale(.2254)" y="611.783" x="-117.157" style="font-style:normal;font-variant:normal;font-weight:400;font-stretch:normal;font-size:72.68054962px;line-height:1.25;font-family:Roboto;-inkscape-font-specification:Roboto;text-align:start;letter-spacing:0;word-spacing:0;text-anchor:start;fill:#f58025;fill-opacity:1;stroke:none;stroke-width:1.36276042" xml:space="preserve"><tspan style="font-style:normal;font-variant:normal;font-weight:400;font-stretch:normal;font-family:'ITC Avant Garde Gothic';-inkscape-font-specification:'ITC Avant Garde Gothic';fill:#f58025;fill-opacity:1;stroke-width:1.36276042" y="611.783" x="-117.157">Conectividad <tspan style="fill:#666">-</tspan> Productividad</tspan></text><path style="fill:#f58025;fill-opacity:1;fill-rule:nonzero;stroke:none" d="M0 0v-12.696C5.985-2.125 13.678 2.695 24.239 2.695c3.68 0 5.986-.367 10.215-2.133l-3.268-21.694c-4.047 2.026-6.752 2.867-10.971 2.867C6.557-18.265 0-26.372 0-43.283v-40.066h-23.265V0z" transform="matrix(.2254 0 0 -.2254 68.225 24.591)"/><path style="fill:#f58025;fill-opacity:1;fill-rule:nonzero;stroke:none" d="M0 0c-2.545 10.779-9.425 16.576-19.644 16.576-10.592 0-17.518-5.973-19.627-16.576zm-40.201-14.813c.54-14.436 7.682-22.347 20.557-22.347 8.648 0 14.438 3.298 19.644 11.179l21.556-3.455C14.607-46.379.367-55.429-19.069-55.429c-27.334 0-45.049 17.34-45.049 44.285 0 26.968 17.13 44.442 43.684 44.442 26.383 0 42.771-17.131 42.771-44.649v-3.462z" transform="matrix(.2254 0 0 -.2254 89.528 31.49)"/><path style="fill:#f58025;fill-opacity:1;fill-rule:nonzero;stroke:none" d="M0 0c-4.976 3.897-9.195 5.591-13.793 5.591-5.228 0-9.092-3.047-9.092-6.911 0-4.024 2.316-5.583 13.288-9.447 19.642-6.892 25.41-12.865 25.41-25.97 0-17.487-14.425-29.827-34.994-29.827-12.166 0-23.517 5.015-31.613 13.832l12.098 14.263c6.8-6.731 12.956-9.825 19.675-9.825 6.168 0 10.779 3.859 10.779 9.306 0 4.785-2.318 6.493-12.923 10.334-10.376 3.887-12.27 4.663-15.914 7.316-5.619 3.864-8.313 9.608-8.313 17.163 0 15.56 12.337 26.706 29.259 26.706 10.986 0 19.437-2.684 27.703-8.818z" transform="matrix(.2254 0 0 -.2254 105.156 28.98)"/><path style="fill:#f58025;fill-opacity:1;fill-rule:nonzero;stroke:none" d="M0 0h-23.286v63.147h-9.231v20.202h9.231v28.482H0V83.349h16.58V63.147H0z" transform="matrix(.2254 0 0 -.2254 115.7 43.378)"/><path style="fill:#f58025;fill-opacity:1;fill-rule:nonzero;stroke:none" d="M0 0v-12.696C5.997-2.125 13.645 2.695 24.262 2.695c3.624 0 5.952-.367 10.183-2.133l-3.268-21.694c-4.035 2.026-6.743 2.867-10.973 2.867C6.537-18.265 0-26.372 0-43.283v-40.066h-23.299V0z" transform="matrix(.2254 0 0 -.2254 125.681 24.591)"/><path style="fill:#f58025;fill-opacity:1;fill-rule:nonzero;stroke:none" d="M0 0c-2.477 10.779-9.402 16.576-19.606 16.576-10.596 0-17.521-5.973-19.62-16.576zm-40.199-14.813c.607-14.436 7.727-22.347 20.593-22.347 8.657 0 14.435 3.298 19.606 11.179l21.58-3.455C14.643-46.379.39-55.429-19.067-55.429c-27.266 0-44.981 17.34-44.981 44.285 0 26.968 17.128 44.442 43.672 44.442 26.396 0 42.713-17.131 42.713-44.649v-3.462z" transform="matrix(.2254 0 0 -.2254 146.977 31.49)"/><path style="fill:#f58025;fill-opacity:1;fill-rule:nonzero;stroke:none" d="M0 0c0-12.892 10.595-23.493 23.528-23.493 12.865 0 23.253 10.399 23.253 23.333 0 13.071-10.388 23.482-23.253 23.482C10.399 23.322 0 12.911 0 0m67.58 41.587v-83.349H44.315v10.789C36.771-40.2 28.527-44.445 17.107-44.445c-23.608 0-41.139 19.094-41.139 44.686 0 24.98 17.725 44.041 40.785 44.041 11.19 0 19.456-4.025 27.562-13.45v10.755z" transform="matrix(.2254 0 0 -.2254 158.235 33.965)"/><path style="fill:#f58025;fill-opacity:1;fill-rule:nonzero;stroke:none" d="M0 0v-9.597C7.831-.574 15.03 2.695 26.164 2.695c10.779 0 18.86-4.82 25.19-15.204C57.925-2.316 66.938 2.695 78.69 2.695c18.298 0 27.932-11.126 27.932-32.116v-53.928H83.334v45.627c0 14.627-4.059 20.57-14.068 20.57-10.56 0-15.972-7.87-15.972-23.471v-42.726H30.051v44.297c0 7.131-.424 10.789-1.822 13.851-1.88 4.781-7.076 8.049-12.463 8.049-5.172 0-10.779-3.05-13.107-7.488C.755-28.08 0-32.552 0-40.623v-42.726h-23.321V0z" transform="matrix(.2254 0 0 -.2254 180.348 24.591)"/><path style="opacity:1;fill:#f58025;fill-opacity:1;stroke:none;stroke-width:2.11666656;stroke-linecap:round;stroke-linejoin:miter;stroke-miterlimit:4;stroke-dasharray:none;stroke-opacity:1;paint-order:normal" d="M6.735 171.276h292.607v60.991H6.735z" transform="matrix(.63893 0 0 .63893 13.122 -63.012)"/><text xml:space="preserve" style="font-style:normal;font-variant:normal;font-weight:400;font-stretch:normal;font-size:60.27819824px;line-height:1.25;font-family:'ITC Avant Garde Gothic';-inkscape-font-specification:'ITC Avant Garde Gothic';text-align:start;letter-spacing:0;word-spacing:0;text-anchor:start;fill:#fff;fill-opacity:1;stroke:none;stroke-width:1.13021624" x="13.878" y="219.693" transform="matrix(.63893 0 0 .63893 13.122 -63.012)"><tspan x="13.878" y="219.693" style="font-style:normal;font-variant:normal;font-weight:400;font-stretch:normal;font-family:'ITC Avant Garde Gothic';-inkscape-font-specification:'ITC Avant Garde Gothic';fill:#fff;stroke-width:1.13021624" dx="0 0 0 0 0 -2.245064 -1.4967093 0 0 -1.4967093 0 0 -1.122532">Digital Fairs</tspan></text></g><text y="267.461" x="110.817" style="font-style:normal;font-variant:normal;font-weight:400;font-stretch:normal;font-size:16.93333244px;line-height:1;font-family:Roboto;-inkscape-font-specification:Roboto;text-align:center;letter-spacing:0;word-spacing:0;text-anchor:middle;fill:#155196;fill-opacity:1;stroke:none;stroke-width:.26458332" xml:space="preserve" transform="translate(0 -75.173)"><tspan style="font-size:16.93333244px;line-height:1;text-align:center;text-anchor:middle;fill:#155196;fill-opacity:1;stroke-width:.26458332" y="267.461" x="112.917">Asiste con nosotros y </tspan><tspan style="font-size:16.93333244px;line-height:1;text-align:center;text-anchor:middle;fill:#155196;fill-opacity:1;stroke-width:.26458332" y="284.395" x="110.817">sorprendete</tspan></text></svg>