<?xml version="1.0" encoding="UTF-8" standalone="no"?>
<!-- Created with Inkscape (http://www.inkscape.org/) -->

<svg
   xmlns:dc="http://purl.org/dc/elements/1.1/"
   xmlns:cc="http://creativecommons.org/ns#"
   xmlns:rdf="http://www.w3.org/1999/02/22-rdf-syntax-ns#"
   xmlns:svg="http://www.w3.org/2000/svg"
   xmlns="http://www.w3.org/2000/svg"
   xmlns:sodipodi="http://sodipodi.sourceforge.net/DTD/sodipodi-0.dtd"
   xmlns:inkscape="http://www.inkscape.org/namespaces/inkscape"
   width="210mm"
   height="297mm"
   viewBox="0 0 744.09448819 1052.3622047"
   id="svg2"
   version="1.1"
   inkscape:version="0.91 r13725"
   inkscape:export-filename="/home/mauricio/diseno-final/src/_images/construccion.png"
   inkscape:export-xdpi="90.057404"
   inkscape:export-ydpi="90.057404"
   sodipodi:docname="logos-varios.svg">
  <defs
     id="defs4">
    <filter
       inkscape:collect="always"
       style="color-interpolation-filters:sRGB"
       id="filter4262"
       x="-0.060010944"
       width="1.1200219"
       y="-0.05998906"
       height="1.1199781">
      <feGaussianBlur
         inkscape:collect="always"
         stdDeviation="19.545215"
         id="feGaussianBlur4264" />
    </filter>
    <filter
       inkscape:collect="always"
       style="color-interpolation-filters:sRGB"
       id="filter4464"
       x="-0.04320788"
       width="1.0864158"
       y="-0.043192123"
       height="1.0863842">
      <feGaussianBlur
         inkscape:collect="always"
         stdDeviation="14.072555"
         id="feGaussianBlur4466" />
    </filter>
  </defs>
  <sodipodi:namedview
     id="base"
     pagecolor="#ffffff"
     bordercolor="#666666"
     borderopacity="1.0"
     inkscape:pageopacity="0.0"
     inkscape:pageshadow="2"
     inkscape:zoom="1"
     inkscape:cx="218.2311"
     inkscape:cy="597.82142"
     inkscape:document-units="px"
     inkscape:current-layer="layer1"
     showgrid="false"
     inkscape:window-width="1366"
     inkscape:window-height="744"
     inkscape:window-x="0"
     inkscape:window-y="-6"
     inkscape:window-maximized="1" />
  <metadata
     id="metadata7">
    <rdf:RDF>
      <cc:Work
         rdf:about="">
        <dc:format>image/svg+xml</dc:format>
        <dc:type
           rdf:resource="http://purl.org/dc/dcmitype/StillImage" />
        <dc:title></dc:title>
      </cc:Work>
    </rdf:RDF>
  </metadata>
  <g
     inkscape:label="Capa 1"
     inkscape:groupmode="layer"
     id="layer1">
    <path
       inkscape:connector-curvature="0"
       id="path4266"
       d="m 405,-219.63867 a 391,391 0 0 0 -391,391 391,391 0 0 0 17.955078,115.74805 C 41.691487,243.30559 127.51086,193.17566 154.32812,144.61133 184.32813,90.28327 321.25339,51.42303 158.57031,38.335938 127.14919,35.808256 190.63331,-24.468433 246.27539,-82.509766 333.38234,-189.85351 399.18947,-300.11698 546.23242,-133.67188 638.54896,-29.174278 736.95757,9.219662 780.87891,64.144531 A 391,391 0 0 0 405,-219.63867 Z m 390.66602,397.67773 c -13.26237,40.89843 -42.31883,92.80642 -91.89258,162.16016 -44.95806,62.89638 -226.1785,171.3722 -256.61719,193.19531 -14.69356,10.53459 -28.17508,20.09006 -40.76172,28.91797 A 391,391 0 0 0 795.66602,178.03906 Z M 233.05273,224.01758 C 200.01723,222.30751 76.326381,326.30015 41.591797,315.32227 A 391,391 0 0 0 134.4707,453.05078 c 53.37972,-80.53303 144.18814,-203.10187 103.08985,-227.80859 -1.22318,-0.73533 -2.73422,-1.1328 -4.50782,-1.22461 z m 152.25782,159.59961 c -32.63958,0.58717 -132.16372,65.82566 -205.04883,107.43945 a 391,391 0 0 0 140.53516,61.8457 c 43.00998,-60.70274 93.74379,-135.2684 73.96093,-165.5957 -1.70818,-2.61866 -4.94008,-3.77054 -9.44726,-3.68945 z"
       style="opacity:0.481;fill:#333333;fill-opacity:1;fill-rule:nonzero;stroke:none;stroke-width:0.2;stroke-linecap:butt;stroke-linejoin:round;stroke-miterlimit:4;stroke-dasharray:none;stroke-opacity:0.99215686;filter:url(#filter4464)"
       inkscape:export-xdpi="90.057404"
       inkscape:export-ydpi="90.057404"
       transform="matrix(0.14917088,0,0,0.14917088,255.59716,372.94721)" />
    <path
       style="opacity:0.81499999;fill:#333333;fill-opacity:1;fill-rule:nonzero;stroke:none;stroke-width:0.2;stroke-linecap:butt;stroke-linejoin:round;stroke-miterlimit:4;stroke-dasharray:none;stroke-opacity:0.99215686;filter:url(#filter4262)"
       d="m 401,-191.63867 a 391,391 0 0 0 -391.0000002,391 391,391 0 0 0 17.9550802,115.74805 c 9.73641,-43.80379 95.55578,-93.93372 122.37304,-142.49805 30.00001,-54.32806 166.92527,-93.1883 4.24219,-106.27539 -31.42112,-2.52768 32.063,-62.8043699 87.70508,-120.84571 87.10695,-107.34374 152.91408,-217.60721 299.95703,-51.16211 C 634.54896,-1.1742799 732.95757,37.21966 776.87891,92.14453 A 391,391 0 0 0 401,-191.63867 Z m 390.66602,397.67773 c -13.26237,40.89843 -42.31883,92.80642 -91.89258,162.16016 -44.95806,62.89638 -226.1785,171.3722 -256.61719,193.19531 -14.69356,10.53459 -28.17508,20.09006 -40.76172,28.91797 A 391,391 0 0 0 791.66602,206.03906 Z M 229.05273,252.01758 C 196.01723,250.30751 72.32638,354.30015 37.5918,343.32227 a 391,391 0 0 0 92.8789,137.72851 c 53.37972,-80.53303 144.18814,-203.10187 103.08985,-227.80859 -1.22318,-0.73533 -2.73422,-1.1328 -4.50782,-1.22461 z m 152.25782,159.59961 c -32.63958,0.58717 -132.16372,65.82566 -205.04883,107.43945 a 391,391 0 0 0 140.53516,61.8457 c 43.00998,-60.70274 93.74379,-135.2684 73.96093,-165.5957 -1.70818,-2.61866 -4.94008,-3.77054 -9.44726,-3.68945 z"
       id="circle4193"
       inkscape:connector-curvature="0"
       inkscape:export-xdpi="90.057404"
       inkscape:export-ydpi="90.057404"
       transform="matrix(0.14917088,0,0,0.14917088,255.59716,372.94721)" />
    <path
       style="opacity:1;fill:#666666;fill-opacity:1;fill-rule:nonzero;stroke:none;stroke-width:12;stroke-linecap:butt;stroke-linejoin:round;stroke-miterlimit:4;stroke-dasharray:none;stroke-opacity:0.99215686"
       d="m 315.71302,340.48186 a 58.325813,58.325813 0 0 0 -58.32581,58.32581 58.325813,58.325813 0 0 0 2.67837,17.26624 c 1.45239,-6.53425 14.25414,-14.01217 18.2545,-21.25656 4.47513,-8.10416 24.90039,-13.90098 0.63281,-15.85319 -4.68711,-0.37706 4.78287,-9.36858 13.08304,-18.02666 12.99383,-16.01256 22.81033,-32.46066 44.74486,-7.6319 13.77094,15.588 28.45064,21.31526 35.00242,29.50845 a 58.325813,58.325813 0 0 0 -56.07019,-42.33219 z m 58.276,59.32194 c -1.97836,6.10085 -6.31274,13.84401 -13.7077,24.18957 -6.70643,9.38231 -33.73925,25.56374 -38.27981,28.81911 -2.19185,1.57146 -4.2029,2.99686 -6.08046,4.31372 a 58.325813,58.325813 0 0 0 58.06797,-57.3224 z m -83.92552,6.85865 c -4.92794,-0.25509 -23.37901,15.25758 -28.5604,13.62 a 58.325813,58.325813 0 0 0 13.85483,20.54509 c 7.9627,-12.01319 21.50867,-30.29689 15.378,-33.98241 -0.18246,-0.10969 -0.40786,-0.16898 -0.67243,-0.18268 z m 22.71243,23.80762 c -4.86887,0.0876 -19.71498,9.81927 -30.58731,16.02683 a 58.325813,58.325813 0 0 0 20.96375,9.22558 c 6.41584,-9.05508 13.98384,-20.1781 11.03282,-24.70205 -0.25481,-0.39063 -0.73692,-0.56246 -1.40926,-0.55036 z"
       id="circle4470"
       inkscape:connector-curvature="0"
       inkscape:export-xdpi="90.057404"
       inkscape:export-ydpi="90.057404" />
    <g
       id="g4170"
       transform="matrix(0.10748416,0.10343649,-0.10343649,0.10748416,292.14726,340.39153)"
       style="fill:#800000"
       inkscape:export-xdpi="90.057404"
       inkscape:export-ydpi="90.057404">
      <path
         id="rect4138"
         d="m 339,312.29883 c -4.91204,2.47767 -7.95312,5.92135 -7.95312,9.74414 l 0,151.63867 c -10e-6,7.57915 11.93636,13.67969 26.76171,13.67969 l 28.47852,0 c 14.82535,0 26.75977,-6.10054 26.75977,-13.67969 l 0,-151.63867 c 0,-3.8222 -3.04047,-7.2646 -7.95118,-9.74219 l 0,0.13477 c 0,2.479 -9.73766,4.47461 -21.83203,4.47461 l -22.43359,0 C 348.73571,316.91016 339,314.91455 339,312.43555 l 0,-0.13672 z"
         style="opacity:1;fill:#800000;fill-opacity:1;fill-rule:nonzero;stroke:none;stroke-width:2;stroke-miterlimit:4;stroke-dasharray:none;stroke-opacity:0.99215686"
         inkscape:connector-curvature="0" />
      <rect
         rx="18.518919"
         ry="3.9655683"
         y="240.8141"
         x="344.013"
         height="70.096176"
         width="56.068459"
         id="rect4140"
         style="opacity:1;fill:#800000;fill-opacity:1;fill-rule:nonzero;stroke:none;stroke-width:12;stroke-miterlimit:4;stroke-dasharray:none;stroke-opacity:0.99215686" />
      <rect
         ry="15.089236"
         y="-98.637794"
         x="132.54724"
         height="149"
         width="479"
         id="rect4148"
         style="opacity:1;fill:#800000;fill-opacity:1;fill-rule:nonzero;stroke:none;stroke-width:2;stroke-miterlimit:4;stroke-dasharray:none;stroke-opacity:0.99215686" />
      <path
         inkscape:connector-curvature="0"
         id="path4150"
         d="m 627.89453,-38.080078 c -4.0997,-0.105939 -7.97403,0.555954 -12.53711,0.447266 l -0.71484,29.9902339 c 4.18356,0.099649 6.76286,0.4020536 9.07422,0.6171875 0.11563,1.3404138 0.23709,1.511695 0.27929,3.6074218 L 623.15234,65.714844 370.43555,109.58398 A 15.0015,15.0015 0 0 0 358,124.22656 l -1,111 30,0.27149 0.88672,-98.4961 252.67773,-43.861325 a 15.0015,15.0015 0 0 0 12.4336,-14.595703 l 1,-82.0000001 a 15.0015,15.0015 0 0 0 0,-0.4667969 c -0.10967,-5.7922409 -0.31085,-10.427262 -1.64844,-15.464844 -1.33759,-5.037581 -5.10978,-11.367205 -10.57031,-14.541015 -5.46054,-3.17381 -9.78506,-4.046406 -13.88477,-4.152344 z"
         style="color:#000000;font-style:normal;font-variant:normal;font-weight:normal;font-stretch:normal;font-size:medium;line-height:normal;font-family:sans-serif;text-indent:0;text-align:start;text-decoration:none;text-decoration-line:none;text-decoration-style:solid;text-decoration-color:#000000;letter-spacing:normal;word-spacing:normal;text-transform:none;direction:ltr;block-progression:tb;writing-mode:lr-tb;baseline-shift:baseline;text-anchor:start;white-space:normal;clip-rule:nonzero;display:inline;overflow:visible;visibility:visible;opacity:1;isolation:auto;mix-blend-mode:normal;color-interpolation:sRGB;color-interpolation-filters:linearRGB;solid-color:#000000;solid-opacity:1;fill:#800000;fill-opacity:1;fill-rule:evenodd;stroke:none;stroke-width:30;stroke-linecap:butt;stroke-linejoin:round;stroke-miterlimit:4;stroke-dasharray:none;stroke-dashoffset:0;stroke-opacity:1;color-rendering:auto;image-rendering:auto;shape-rendering:auto;text-rendering:auto;enable-background:accumulate" />
    </g>
    <text
       xml:space="preserve"
       style="font-style:normal;font-weight:normal;font-size:8.2551012px;line-height:75%;font-family:sans-serif;text-align:center;letter-spacing:-0.94574362px;word-spacing:0px;text-anchor:middle;fill:#666666;fill-opacity:1;stroke:none;stroke-width:1px;stroke-linecap:butt;stroke-linejoin:miter;stroke-opacity:1"
       x="316.94202"
       y="469.77081"
       id="text4556"
       sodipodi:linespacing="75%"><tspan
         sodipodi:role="line"
         id="tspan4558"
         x="318.60022"
         y="469.77081"
         style="font-style:normal;font-variant:normal;font-weight:600;font-stretch:normal;font-size:18.6463604px;line-height:75%;font-family:'URW Gothic L';-inkscape-font-specification:'URW Gothic L Semi-Bold';text-align:center;letter-spacing:-0.94574362px;text-anchor:middle;fill:#666666;fill-opacity:1">NOS ESTAMOS </tspan><tspan
         sodipodi:role="line"
         x="316.15814"
         y="484.87872"
         style="font-style:normal;font-variant:normal;font-weight:600;font-stretch:normal;font-size:20.51099586px;line-height:75%;font-family:'URW Gothic L';-inkscape-font-specification:'URW Gothic L Semi-Bold';text-align:center;letter-spacing:-1.56778586px;text-anchor:middle;fill:#666666;fill-opacity:1"
         id="tspan4560">RENOVANDO</tspan></text>
  </g>
</svg>
