<?xml version="1.0" encoding="UTF-8" standalone="no"?>
<!-- Created with Inkscape (http://www.inkscape.org/) -->

<svg
   xmlns:dc="http://purl.org/dc/elements/1.1/"
   xmlns:cc="http://creativecommons.org/ns#"
   xmlns:rdf="http://www.w3.org/1999/02/22-rdf-syntax-ns#"
   xmlns:svg="http://www.w3.org/2000/svg"
   xmlns="http://www.w3.org/2000/svg"
   xmlns:sodipodi="http://sodipodi.sourceforge.net/DTD/sodipodi-0.dtd"
   xmlns:inkscape="http://www.inkscape.org/namespaces/inkscape"
   width="9.4602394mm"
   height="11.465626mm"
   viewBox="0 0 33.520533 40.626233"
   id="svg6357"
   version="1.1"
   inkscape:version="0.91 r13725"
   sodipodi:docname="logo-imagenologia.svg">
  <defs
     id="defs6359" />
  <sodipodi:namedview
     id="base"
     pagecolor="#ffffff"
     bordercolor="#666666"
     borderopacity="1.0"
     inkscape:pageopacity="0.0"
     inkscape:pageshadow="2"
     inkscape:zoom="2.8"
     inkscape:cx="-5.2754478"
     inkscape:cy="0.1763856"
     inkscape:document-units="px"
     inkscape:current-layer="g6340"
     showgrid="false"
     fit-margin-top="0"
     fit-margin-left="0"
     fit-margin-right="0"
     fit-margin-bottom="0"
     inkscape:window-width="1366"
     inkscape:window-height="744"
     inkscape:window-x="0"
     inkscape:window-y="-6"
     inkscape:window-maximized="1" />
  <metadata
     id="metadata6362">
    <rdf:RDF>
      <cc:Work
         rdf:about="">
        <dc:format>image/svg+xml</dc:format>
        <dc:type
           rdf:resource="http://purl.org/dc/dcmitype/StillImage" />
        <dc:title></dc:title>
      </cc:Work>
    </rdf:RDF>
  </metadata>
  <g
     inkscape:label="Capa 1"
     inkscape:groupmode="layer"
     id="layer1"
     transform="translate(-88.954019,-572.04908)">
    <g
       id="g6340"
       transform="matrix(0.54950737,0,0,0.54950737,35.722762,432.74179)">
      <rect
         ry="4.5258622"
         style="opacity:1;fill:none;fill-opacity:1;fill-rule:nonzero;stroke:#ffffff;stroke-width:3.63962364;stroke-miterlimit:4;stroke-dasharray:none;stroke-opacity:0.99215686"
         id="rect4249"
         width="57.361439"
         height="70.292473"
         x="98.690681"
         y="255.33287" />
      <path
         sodipodi:nodetypes="ccccccc"
         inkscape:connector-curvature="0"
         id="path4256"
         d="m 136.30264,307.64913 -7.07226,3.16602 -2.13477,-8.38282 -10.22656,5.81641 c 0.74394,9.29921 0.94353,15.49572 0.77929,17.19466 6.12381,0.16519 16.92218,0.0954 19.81055,0 -0.61916,-4.65538 -1.12312,-10.05166 -1.15625,-17.79427 z"
         style="fill:#ffffff;fill-rule:evenodd;stroke:none;stroke-width:1px;stroke-linecap:butt;stroke-linejoin:miter;stroke-opacity:1" />
      <path
         inkscape:connector-curvature="0"
         id="path4251"
         d="m 121.47638,256.2193 c -3.3771,1e-5 -9.19411,1.25588 -11.125,5.33399 -1.46227,5.01536 -0.98606,2.57081 3.49414,14.31641 2.46629,6.46579 3.91376,17.85957 4.71875,27.92187 l 10.22656,-5.81641 2.13477,8.38282 7.07226,-3.16602 c -0.043,-10.04304 0.7737,-20.78838 3.86133,-27.91992 4.9977,-11.54328 -2.70508,-13.56641 -2.70508,-13.56641 -4.35354,-1.64192 -6.84129,1.17335 -8.99023,0.45703 -1.8297,-0.60989 -6.30632,-5.94336 -8.6875,-5.94336 z"
         style="fill:#ffffff;fill-rule:evenodd;stroke:none;stroke-width:1px;stroke-linecap:butt;stroke-linejoin:miter;stroke-opacity:1" />
    </g>
  </g>
</svg>
