<?xml version="1.0" encoding="UTF-8" standalone="no"?>
<!-- Created with Inkscape (http://www.inkscape.org/) -->

<svg
   xmlns:dc="http://purl.org/dc/elements/1.1/"
   xmlns:cc="http://creativecommons.org/ns#"
   xmlns:rdf="http://www.w3.org/1999/02/22-rdf-syntax-ns#"
   xmlns:svg="http://www.w3.org/2000/svg"
   xmlns="http://www.w3.org/2000/svg"
   xmlns:sodipodi="http://sodipodi.sourceforge.net/DTD/sodipodi-0.dtd"
   xmlns:inkscape="http://www.inkscape.org/namespaces/inkscape"
   width="14.111111mm"
   height="17.687397mm"
   viewBox="0 0 49.999998 62.671879"
   id="svg5142"
   version="1.1"
   inkscape:version="0.91 r13725"
   sodipodi:docname="logo-blanco.svg">
  <defs
     id="defs5144">
    <clipPath
       id="clipPath6599-8"
       clipPathUnits="userSpaceOnUse">
      <path
         inkscape:connector-curvature="0"
         id="path6601-0"
         d="m 201.2612,497.88132 c 0,-3.43601 -2.78271,-6.21768 -6.21771,-6.21768 -3.4361,0 -6.21781,2.78167 -6.21781,6.21768 0,3.4371 2.78171,6.22165 6.21781,6.22165 3.435,0 6.21771,-2.78455 6.21771,-6.22165" />
    </clipPath>
    <radialGradient
       id="radialGradient6603-5"
       spreadMethod="pad"
       gradientTransform="matrix(-7.32431,7.32283,7.32283,7.32431,504.97543,183.58824)"
       gradientUnits="userSpaceOnUse"
       r="1"
       cy="0"
       cx="0"
       fy="0"
       fx="0">
      <stop
         id="stop6605-7"
         offset="0"
         style="stop-opacity:1;stop-color:#155196" />
      <stop
         id="stop6607-4"
         offset="1"
         style="stop-opacity:1;stop-color:#ffffff" />
    </radialGradient>
    <clipPath
       id="clipPath6615-1"
       clipPathUnits="userSpaceOnUse">
      <path
         inkscape:connector-curvature="0"
         id="path6617-9"
         d="m 203.73729,505.14362 c 0,-1.33841 -1.0894,-2.42341 -2.42281,-2.42341 -1.34228,0 -2.4302,1.085 -2.4302,2.42341 0,1.33779 1.08792,2.4277 2.4302,2.4277 1.33341,0 2.42281,-1.08991 2.42281,-2.4277" />
    </clipPath>
    <radialGradient
       id="radialGradient6619-8"
       spreadMethod="pad"
       gradientTransform="matrix(-2.85596,2.85532,2.85532,2.85596,508.53453,193.61397)"
       gradientUnits="userSpaceOnUse"
       r="1"
       cy="0"
       cx="0"
       fy="0"
       fx="0">
      <stop
         id="stop6621-8"
         offset="0"
         style="stop-opacity:1;stop-color:#155196" />
      <stop
         id="stop6623-1"
         offset="1"
         style="stop-opacity:1;stop-color:#ffffff" />
    </radialGradient>
    <clipPath
       id="clipPath6631-5"
       clipPathUnits="userSpaceOnUse">
      <path
         inkscape:connector-curvature="0"
         id="path6633-7"
         d="m 199.27438,514.29358 c 0,-2.33453 -1.89499,-4.22955 -4.23089,-4.22955 -2.33551,0 -4.22998,1.89502 -4.22998,4.22955 0,2.33777 1.89447,4.23181 4.22998,4.23181 2.3359,0 4.23089,-1.89404 4.23089,-4.23181" />
    </clipPath>
    <radialGradient
       id="radialGradient6635-6"
       spreadMethod="pad"
       gradientTransform="matrix(-4.98259,4.98154,4.98154,4.98259,503.38847,202.09373)"
       gradientUnits="userSpaceOnUse"
       r="1"
       cy="0"
       cx="0"
       fy="0"
       fx="0">
      <stop
         id="stop6637-1"
         offset="0"
         style="stop-opacity:1;stop-color:#155196" />
      <stop
         id="stop6639-2"
         offset="1"
         style="stop-opacity:1;stop-color:#ffffff" />
    </radialGradient>
  </defs>
  <sodipodi:namedview
     id="base"
     pagecolor="#ffffff"
     bordercolor="#666666"
     borderopacity="1.0"
     inkscape:pageopacity="0.0"
     inkscape:pageshadow="2"
     inkscape:zoom="1.979899"
     inkscape:cx="-60.845338"
     inkscape:cy="9.9712528"
     inkscape:document-units="px"
     inkscape:current-layer="layer1"
     showgrid="false"
     fit-margin-top="0"
     fit-margin-left="0"
     fit-margin-right="0"
     fit-margin-bottom="0"
     inkscape:window-width="1366"
     inkscape:window-height="744"
     inkscape:window-x="0"
     inkscape:window-y="-6"
     inkscape:window-maximized="1" />
  <metadata
     id="metadata5147">
    <rdf:RDF>
      <cc:Work
         rdf:about="">
        <dc:format>image/svg+xml</dc:format>
        <dc:type
           rdf:resource="http://purl.org/dc/dcmitype/StillImage" />
        <dc:title></dc:title>
      </cc:Work>
    </rdf:RDF>
  </metadata>
  <g
     inkscape:label="Capa 1"
     inkscape:groupmode="layer"
     id="layer1"
     transform="translate(-301.99065,-392.45484)">
    <path
       inkscape:export-ydpi="90.057404"
       inkscape:export-xdpi="90.057404"
       inkscape:connector-curvature="0"
       style="fill:#ffffff;fill-opacity:1;fill-rule:nonzero;stroke:none"
       d="m 317.73797,392.45484 c -8.69663,0 -15.74732,6.69001 -15.74732,14.9453 l 0,32.78516 c 0,8.24943 7.05069,14.94142 15.74732,14.94142 l 18.50123,0 c 8.69733,0 15.75145,-6.69199 15.75145,-14.94142 l 0,-32.78516 c 0,-8.25529 -7.05412,-14.9453 -15.75145,-14.9453 l -18.50123,0 z m 3.57923,8.53319 15.09076,0 c 7.09447,0 12.85145,5.46307 12.85145,12.19532 l 0,26.74609 c 0,6.73212 -5.75698,12.19532 -12.85145,12.19532 l -15.09076,0 c -7.09571,0 -12.85144,-5.4632 -12.85144,-12.19532 l 0,-26.74609 c 0,-6.73225 5.75573,-12.19532 12.85144,-12.19532 z"
       id="path5020" />
    <g
       inkscape:export-ydpi="90.057404"
       inkscape:export-xdpi="90.057404"
       id="g5022"
       transform="matrix(1.3846612,0,0,-1.3139679,51.332218,1093.687)"
       style="fill:#ffffff">
      <g
         clip-path="url(#clipPath6599-8)"
         id="g5024"
         style="fill:#ffffff">
        <path
           inkscape:connector-curvature="0"
           id="path5026"
           style="fill:#ffffff;fill-opacity:1;fill-rule:nonzero;stroke:none"
           d="m 188.82568,491.66364 0,12.43933 12.43552,0 0,-12.43933 -12.43552,0 z" />
      </g>
    </g>
    <g
       inkscape:export-ydpi="90.057404"
       inkscape:export-xdpi="90.057404"
       id="g5028"
       transform="matrix(1.3846612,0,0,-1.3139679,51.332218,1093.687)"
       style="fill:#ffffff">
      <g
         clip-path="url(#clipPath6615-1)"
         id="g5030"
         style="fill:#ffffff">
        <path
           inkscape:connector-curvature="0"
           id="path5032"
           style="fill:#ffffff;fill-opacity:1;fill-rule:nonzero;stroke:none"
           d="m 198.88428,502.72021 0,4.85111 4.85301,0 0,-4.85111 -4.85301,0 z" />
      </g>
    </g>
    <g
       inkscape:export-ydpi="90.057404"
       inkscape:export-xdpi="90.057404"
       id="g5034"
       transform="matrix(1.3846612,0,0,-1.3139679,51.332218,1093.687)"
       style="fill:#ffffff">
      <g
         clip-path="url(#clipPath6631-5)"
         id="g5036"
         style="fill:#ffffff">
        <path
           inkscape:connector-curvature="0"
           id="path5038"
           style="fill:#ffffff;fill-opacity:1;fill-rule:nonzero;stroke:none"
           d="m 190.81351,510.06403 0,8.46136 8.46087,0 0,-8.46136 -8.46087,0 z" />
      </g>
    </g>
  </g>
</svg>
