<?xml version="1.0" encoding="UTF-8" standalone="no"?>
<!-- Created with Inkscape (http://www.inkscape.org/) -->

<svg
   xmlns:dc="http://purl.org/dc/elements/1.1/"
   xmlns:cc="http://creativecommons.org/ns#"
   xmlns:rdf="http://www.w3.org/1999/02/22-rdf-syntax-ns#"
   xmlns:svg="http://www.w3.org/2000/svg"
   xmlns="http://www.w3.org/2000/svg"
   xmlns:xlink="http://www.w3.org/1999/xlink"
   xmlns:sodipodi="http://sodipodi.sourceforge.net/DTD/sodipodi-0.dtd"
   xmlns:inkscape="http://www.inkscape.org/namespaces/inkscape"
   width="40"
   height="37.809311"
   id="svg7549"
   version="1.1"
   inkscape:version="0.91 r13725"
   viewBox="0 0 40 37.809311"
   sodipodi:docname="logo-esterilizacion.svg">
  <defs
     id="defs7551">
    <path
       transform="matrix(10,0,0,-10,260,260)"
       id="p"
       d="M 2.8117,-1.046 A 3,3 0 0 1 0.5,2.958 l 0,1.5539 A 10.5,10.5 0 0 1 2,25.3078 l 0,0.5583 A 15,15 0 0 0 14.7975,8.5433 15,15 0 0 0 23.4007,-11.201 l -0.4835,0.2792 A 10.5,10.5 0 0 1 4.1574,-1.8229 Z m 3.4148,8.871 a 10,10 0 0 1 -12.453,0 9.5,9.5 0 0 0 -2.1756,2.7417 13.5,13.5 0 0 0 16.8042,0 A 10,10 0 0 0 6.2265,7.825 Z"
       inkscape:connector-curvature="0" />
  </defs>
  <sodipodi:namedview
     id="base"
     pagecolor="#ffffff"
     bordercolor="#666666"
     borderopacity="1.0"
     inkscape:pageopacity="0.0"
     inkscape:pageshadow="2"
     inkscape:zoom="8"
     inkscape:cx="19.897024"
     inkscape:cy="17.714323"
     inkscape:current-layer="svg7549"
     showgrid="true"
     inkscape:grid-bbox="true"
     inkscape:document-units="px"
     fit-margin-top="0"
     fit-margin-left="0"
     fit-margin-right="0"
     fit-margin-bottom="0"
     inkscape:window-width="1366"
     inkscape:window-height="744"
     inkscape:window-x="0"
     inkscape:window-y="-6"
     inkscape:window-maximized="1" />
  <metadata
     id="metadata7554">
    <rdf:RDF>
      <cc:Work
         rdf:about="">
        <dc:format>image/svg+xml</dc:format>
        <dc:type
           rdf:resource="http://purl.org/dc/dcmitype/StillImage" />
        <dc:title></dc:title>
      </cc:Work>
    </rdf:RDF>
  </metadata>
  <g
     id="layer1"
     inkscape:label="Layer 1"
     inkscape:groupmode="layer"
     transform="translate(4.2631712,2.978522)" />
  <g
     id="g8132"
     transform="matrix(0.08154506,0,0,0.08154506,-1.2017088,-0.10918804)"
     style="fill:#ffffff">
    <use
       id="use8121"
       xlink:href="#p"
       x="0"
       y="0"
       width="100%"
       height="100%"
       style="fill:#ffffff" />
    <use
       id="use8123"
       transform="matrix(-0.5,0.8660254,-0.8660254,-0.5,615.1666,164.8334)"
       xlink:href="#p"
       x="0"
       y="0"
       width="100%"
       height="100%"
       style="fill:#ffffff" />
    <use
       id="use8125"
       transform="matrix(-0.5,-0.8660254,0.8660254,-0.5,164.8334,615.1666)"
       xlink:href="#p"
       x="0"
       y="0"
       width="100%"
       height="100%"
       style="fill:#ffffff" />
  </g>
</svg>
