<svg width="36" height="28" fill="none" xmlns="http://www.w3.org/2000/svg"><path d="M2.063 2.063C3.437.687 5.082 0 7 0c1.917 0 3.563.688 4.938 2.063C13.312 3.437 14 5.082 14 7v14c0 1.917-.688 3.563-2.063 4.938C10.563 27.313 8.918 28 7 28c-1.917 0-3.563-.688-4.938-2.063C.688 24.563 0 22.918 0 21V7c0-1.917.688-3.563 2.063-4.938zM10 14V7c0-.833-.292-1.542-.875-2.125A2.893 2.893 0 0 0 7 4c-.833 0-1.542.292-2.125.875A2.893 2.893 0 0 0 4 7v7h6zm8.75-1.875 13.125 13.188c.292.291.292.541 0 .75-1.958 1.458-4.167 2.083-6.625 1.875-2.458-.167-4.563-1.105-6.313-2.813-1.75-1.75-2.708-3.854-2.875-6.313-.166-2.458.459-4.666 1.875-6.625.25-.291.521-.312.813-.062zm8.063-4.063c2.458.167 4.541 1.126 6.25 2.876 1.75 1.75 2.708 3.854 2.874 6.312.209 2.458-.416 4.667-1.874 6.625-.209.292-.459.292-.75 0L20.124 10.75c-.25-.292-.23-.563.063-.813 1.958-1.416 4.166-2.041 6.625-1.874z" fill="#F2F2F2"/></svg>