<svg xmlns="http://www.w3.org/2000/svg" width="53.333" height="66.85" viewBox="0 0 50 62.672"><defs><clipPath id="a" clipPathUnits="userSpaceOnUse"><path d="M201.261 497.881a6.216 6.216 0 0 0-6.218-6.217 6.215 6.215 0 0 0-6.217 6.217 6.218 6.218 0 1 0 12.435 0"/></clipPath><clipPath id="b" clipPathUnits="userSpaceOnUse"><path d="M203.737 505.144a2.426 2.426 0 1 0-4.852.005 2.426 2.426 0 0 0 4.852-.005"/></clipPath><clipPath id="c" clipPathUnits="userSpaceOnUse"><path d="M199.274 514.294a4.232 4.232 0 0 0-8.46 0 4.23 4.23 0 1 0 8.46 0"/></clipPath></defs><path style="fill:#fff;fill-opacity:1;fill-rule:nonzero;stroke:none" d="M317.738 392.455c-8.697 0-15.747 6.69-15.747 14.945v32.785c0 8.25 7.05 14.942 15.747 14.942h18.501c8.698 0 15.752-6.692 15.752-14.942V407.4c0-8.255-7.054-14.945-15.752-14.945h-18.501zm3.58 8.533h15.09c7.094 0 12.851 5.463 12.851 12.195v26.746c0 6.733-5.757 12.196-12.851 12.196h-15.09c-7.097 0-12.852-5.463-12.852-12.196v-26.746c0-6.732 5.755-12.195 12.851-12.195z" transform="translate(-301.99 -392.455)"/><g clip-path="url(#a)" style="fill:#fff" transform="matrix(1.38466 0 0 -1.31397 -250.658 701.232)"><path style="fill:#fff;fill-opacity:1;fill-rule:nonzero;stroke:none" d="M188.826 491.664v12.439h12.435v-12.44h-12.435z"/></g><g clip-path="url(#b)" style="fill:#fff" transform="matrix(1.38466 0 0 -1.31397 -250.658 701.232)"><path style="fill:#fff;fill-opacity:1;fill-rule:nonzero;stroke:none" d="M198.884 502.72v4.851h4.853v-4.85h-4.853z"/></g><g clip-path="url(#c)" style="fill:#fff" transform="matrix(1.38466 0 0 -1.31397 -250.658 701.232)"><path style="fill:#fff;fill-opacity:1;fill-rule:nonzero;stroke:none" d="M190.814 510.064v8.461h8.46v-8.461h-8.46z"/></g></svg>