<svg xmlns="http://www.w3.org/2000/svg" xmlns:xlink="http://www.w3.org/1999/xlink" width="40" height="37.809"><defs><path transform="matrix(10 0 0 -10 260 260)" id="a" d="M2.812-1.046A3 3 0 0 1 .5 2.958v1.554A10.5 10.5 0 0 1 2 25.308v.558A15 15 0 0 0 14.797 8.543 15 15 0 0 0 23.401-11.2l-.484.28a10.5 10.5 0 0 1-18.76 9.098zm3.415 8.871a10 10 0 0 1-12.454 0 9.5 9.5 0 0 0-2.175 2.742 13.5 13.5 0 0 0 16.804 0 10 10 0 0 0-2.175-2.742z"/></defs><g transform="matrix(.08155 0 0 .08155 -1.202 -.11)" style="fill:#fff"><use xlink:href="#a" width="100%" height="100%" style="fill:#fff"/><use transform="rotate(120 260 260)" xlink:href="#a" width="100%" height="100%" style="fill:#fff"/><use transform="rotate(-120 260 260)" xlink:href="#a" width="100%" height="100%" style="fill:#fff"/></g></svg>