<?xml version="1.0" encoding="UTF-8" standalone="no"?>
<!-- Created with Inkscape (http://www.inkscape.org/) -->

<svg
   xmlns:dc="http://purl.org/dc/elements/1.1/"
   xmlns:cc="http://creativecommons.org/ns#"
   xmlns:rdf="http://www.w3.org/1999/02/22-rdf-syntax-ns#"
   xmlns:svg="http://www.w3.org/2000/svg"
   xmlns="http://www.w3.org/2000/svg"
   xmlns:sodipodi="http://sodipodi.sourceforge.net/DTD/sodipodi-0.dtd"
   xmlns:inkscape="http://www.inkscape.org/namespaces/inkscape"
   width="210mm"
   height="297mm"
   viewBox="0 0 744.09448819 1052.3622047"
   id="svg2"
   version="1.1"
   inkscape:version="0.91 r13725"
   sodipodi:docname="iconos-prueba.svg">
  <defs
     id="defs4" />
  <sodipodi:namedview
     id="base"
     pagecolor="#ffffff"
     bordercolor="#666666"
     borderopacity="1.0"
     inkscape:pageopacity="0.0"
     inkscape:pageshadow="2"
     inkscape:zoom="1"
     inkscape:cx="24.371423"
     inkscape:cy="765.42025"
     inkscape:document-units="px"
     inkscape:current-layer="layer1"
     showgrid="false"
     inkscape:window-width="1366"
     inkscape:window-height="744"
     inkscape:window-x="0"
     inkscape:window-y="-6"
     inkscape:window-maximized="1" />
  <metadata
     id="metadata7">
    <rdf:RDF>
      <cc:Work
         rdf:about="">
        <dc:format>image/svg+xml</dc:format>
        <dc:type
           rdf:resource="http://purl.org/dc/dcmitype/StillImage" />
        <dc:title />
      </cc:Work>
    </rdf:RDF>
  </metadata>
  <g
     inkscape:label="Capa 1"
     inkscape:groupmode="layer"
     id="layer1">
    <rect
       style="opacity:1;fill:#000080;fill-opacity:1;fill-rule:nonzero;stroke:none;stroke-opacity:0.99215686"
       id="rect3336"
       width="80"
       height="80"
       x="87.931038"
       y="78.224274" />
    <g
       style="font-style:normal;font-weight:normal;font-size:55.79665756px;line-height:125%;font-family:sans-serif;letter-spacing:0px;word-spacing:0px;fill:#ffffff;fill-opacity:1;stroke:none;stroke-width:1px;stroke-linecap:butt;stroke-linejoin:miter;stroke-opacity:1"
       id="text3338"
       transform="matrix(1.1754946,0,0,1.1754946,-21.54161,-15.324007)">
      <path
         d="m 114.20483,100.14462 c 2.19772,0 3.76882,-0.408667 4.71329,-1.226001 0.96264,-0.817334 1.44396,-2.161394 1.44396,-4.032181 0,-1.852623 -0.48132,-3.17852 -1.44396,-3.977691 -0.94447,-0.799171 -2.51557,-1.198756 -4.71329,-1.198756 l -4.4136,0 0,10.434629 z m -4.4136,7.24703 0,15.39312 -10.489118,0 0,-40.675984 16.019748,0 c 5.35807,0 9.28127,0.899067 11.7696,2.697202 2.50649,1.798134 3.75974,4.640639 3.75974,8.527516 0,2.68812 -0.65387,4.894921 -1.9616,6.620404 -1.28957,1.725482 -3.24209,2.996892 -5.85756,3.814222 1.43487,0.32693 2.71536,1.07162 3.84147,2.23405 1.14427,1.14427 2.29761,2.88791 3.46004,5.23094 l 5.6941,11.55165 -9.4939,-0.60957 -6.2038,-9.60589 c -0.99896,-2.03425 -2.44711,-3.31596 -3.4824,-4.06064 -1.01713,-0.74468 -2.37935,-1.11702 -4.08667,-1.11702 z"
         style="font-style:normal;font-variant:normal;font-weight:bold;font-stretch:normal;font-family:sans-serif;-inkscape-font-specification:'sans-serif Bold'"
         id="path3347"
         inkscape:connector-curvature="0"
         sodipodi:nodetypes="scscsccsccccscsccccccccsc" />
      <path
         d="m 130.75501,129.02014 -9.71524,-15.72781 9.03413,0.82509 6.23898,9.04516 6.32072,-9.04516 10.32565,0 -11.00676,14.84823 11.55165,15.66557 -10.32565,0 -6.86561,-9.64454 -6.78387,9.64454 -10.32565,0 z"
         style="font-style:normal;font-variant:normal;font-weight:bold;font-stretch:normal;font-family:sans-serif;-inkscape-font-specification:'sans-serif Bold'"
         id="path3349"
         inkscape:connector-curvature="0"
         sodipodi:nodetypes="ccccccccccccc" />
    </g>
    <rect
       y="78.224274"
       x="173.93103"
       height="80"
       width="80"
       id="rect3365"
       style="opacity:1;fill:#000080;fill-opacity:1;fill-rule:nonzero;stroke:none;stroke-opacity:0.99215686" />
    <g
       style="font-style:normal;font-weight:normal;font-size:63.8311615px;line-height:125%;font-family:sans-serif;letter-spacing:0px;word-spacing:0px;fill:#ffffff;fill-opacity:1;stroke:none;stroke-width:1px;stroke-linecap:butt;stroke-linejoin:miter;stroke-opacity:1"
       id="text3351"
       transform="matrix(1.198955,0,0,1.198955,159.4969,-15.485622)">
      <path
         d="m 21.772906,126.35606 0,-46.53317 17.297995,0 c 3.57388,0 6.607522,1.267481 9.100927,3.802442 2.493405,2.514183 3.740108,5.547826 3.740108,9.100928 0,2.825859 -0.820746,5.360819 -2.462238,7.60488 -1.620713,2.22329 -3.805914,3.76089 -6.403211,4.6128 l 14.138042,21.41212 -4.879359,0 -14.938152,-20.8511 -10.63847,0 0,20.8511 z m 4.955642,-25.68207 12.498191,0 c 2.098615,0 3.906334,-0.768801 5.423155,-2.306402 1.5376,-1.558378 2.3064,-3.438821 2.3064,-5.641328 0,-2.244065 -0.7688,-4.155675 -2.3064,-5.734831 -1.537599,-1.579157 -3.397264,-2.368735 -5.578993,-2.368735 l -12.342353,0 z"
         style="font-style:normal;font-variant:normal;font-weight:bold;font-stretch:normal;font-family:Sawasdee;-inkscape-font-specification:'Sawasdee Bold';fill:#ffffff"
         id="path3361"
         inkscape:connector-curvature="0"
         sodipodi:nodetypes="ccscscccccccccscssscc" />
      <path
         d="m 41.624398,111.39615 5.672496,0 7.823057,10.87748 7.823058,-10.87748 5.859501,0 -10.752808,15.02276 11.99951,16.64348 -5.859501,0 -8.976257,-12.56053 -9.007425,12.56053 -5.797166,0 11.937176,-16.64348 -10.721641,-15.02276 z"
         style="font-style:normal;font-variant:normal;font-weight:bold;font-stretch:normal;font-family:Sawasdee;-inkscape-font-specification:'Sawasdee Bold';fill:#ffffff"
         id="path3363"
         inkscape:connector-curvature="0" />
    </g>
    <rect
       style="opacity:1;fill:#000080;fill-opacity:1;fill-rule:nonzero;stroke:none;stroke-opacity:0.99215686"
       id="rect3367"
       width="80"
       height="80"
       x="87.93103"
       y="164.22427" />
    <rect
       y="169.07803"
       x="99.250313"
       height="70.292473"
       width="57.361439"
       id="rect3369"
       style="opacity:1;fill:#000080;fill-opacity:1;fill-rule:nonzero;stroke:#ffffff;stroke-width:2;stroke-miterlimit:4;stroke-dasharray:none;stroke-opacity:0.99215686"
       ry="4.5258622" />
    <path
       style="fill:#ffffff;fill-rule:evenodd;stroke:none;stroke-width:1px;stroke-linecap:butt;stroke-linejoin:miter;stroke-opacity:1"
       d="m 103.3534,199.1123 c 1.48995,0.0872 6.52797,-0.61113 7.25015,-0.90477 1.44486,-0.32199 2.67341,0.662 3.28576,1.90403 0.75007,1.03512 0.53081,2.53598 -0.351,3.421 -0.81271,0.96667 -1.27377,1.79507 -2.57607,2.26798 -1.16518,0.52693 -1.3516,1.71977 -2.27803,2.67521 -0.92624,1.00783 -2.74035,-0.46731 -3.94816,-0.66027 -1.35129,-0.48138 -3.33967,-0.39373 -4.71356,-0.23459 -0.47717,0.0171 -0.8935,1.69992 -0.966623,-3.21355 1.285503,-2.10813 -0.435106,-5.09335 0.809425,-5.08781 1.350378,0.006 2.043758,-0.2518 3.488108,-0.16723 z"
       id="path4177"
       inkscape:connector-curvature="0"
       sodipodi:nodetypes="sccccccccss" />
    <path
       style="fill:#ffffff;fill-rule:evenodd;stroke:none;stroke-width:1px;stroke-linecap:butt;stroke-linejoin:miter;stroke-opacity:1"
       d="m 99.457622,211.60614 c 0.998638,8.1e-4 2.967158,-0.004 3.965758,0.008 0.67499,-0.27802 1.39524,-0.44007 2.12387,-0.47373 0.51438,-0.0502 1.13871,-0.0626 1.51937,0.34659 0.43924,0.7188 0.38847,1.60292 0.37109,2.41363 -0.0104,0.40581 -0.0177,0.81386 0.0359,1.21724 -0.35836,0.63034 -0.89186,1.17477 -1.53243,1.51468 -0.68372,0.24984 -1.38521,0.54276 -2.13033,0.4655 -0.67368,-0.0121 -1.35114,-0.0491 -2.02171,0.0371 -0.42942,0.34165 -1.00943,-0.0892 -1.45793,0.17322 -0.0697,0.0746 -0.10154,0.12878 -0.20854,0.0881"
       id="path4179"
       inkscape:connector-curvature="0"
       sodipodi:nodetypes="ccccccccccc" />
    <path
       style="fill:#ffffff;fill-rule:evenodd;stroke:none;stroke-width:1px;stroke-linecap:butt;stroke-linejoin:miter;stroke-opacity:1"
       d="m 119.17188,184.93725 c -0.6456,0.83587 -0.68942,1.4302 -1.07866,2.61206 -0.38924,1.18186 -0.99908,2.48378 -1.6005,3.92849 -0.382,0.91763 -0.82933,1.89201 -1.25305,2.76476 -0.49303,1.01551 -0.73493,1.28678 -1.10498,2.14393 -0.1794,0.9108 -0.22448,2.09344 1.30871,2.56107 0.6139,0.24636 1.18802,0.39913 1.7916,-0.0117 0.42563,-0.50052 0.0474,-2.37113 0.24693,-2.9883 0.82014,-2.53745 1.01208,-3.20501 2.72304,-6.45358 0.38367,-0.72846 0.87109,-1.34127 1.41471,-2.01766 0.54933,-0.68347 1.45726,-0.69516 1.26801,-1.62838 0.13004,-0.7071 -0.64705,-1.1176 -1.23784,-1.20109 -0.82782,-0.0837 -1.70439,-0.0451 -2.47797,0.29037 z"
       id="path4181"
       inkscape:connector-curvature="0"
       sodipodi:nodetypes="cssscccsssccc" />
    <path
       style="fill:#ffffff;fill-rule:evenodd;stroke:none;stroke-width:1px;stroke-linecap:butt;stroke-linejoin:miter;stroke-opacity:1"
       d="m 124.49605,202.15594 c 1.40772,-0.25108 2.60509,-0.73051 3.9931,-1.06749 1.60622,-0.40352 4.4072,-1.35771 5.89511,-1.77985 1.33103,-0.32258 2.56412,0.58231 3.13982,-1.21022 0.23203,-1.27046 0.32549,-1.92942 -0.4908,-2.88401 -1.19642,-1.39912 -1.52562,0.72418 -2.92692,1.33235 -1.00915,0.89597 -3.4797,1.62601 -4.74655,2.07253 -1.56834,0.69486 -2.93429,0.83545 -4.38781,1.31255 -1.62883,0.32113 -2.88755,0.5486 -4.39415,0.55502 -4.15133,-1.66843 -2.59259,3.98885 -0.41591,3.55249 1.8218,-0.091 1.43864,-1.36692 4.33411,-1.88337 z"
       id="path4198"
       inkscape:connector-curvature="0"
       sodipodi:nodetypes="scccscccccs" />
    <rect
       y="164.22427"
       x="173.93103"
       height="80"
       width="80"
       id="rect4203"
       style="opacity:1;fill:#000080;fill-opacity:1;fill-rule:nonzero;stroke:none;stroke-opacity:0.99215686" />
    <rect
       ry="4.5258622"
       style="opacity:1;fill:#000080;fill-opacity:1;fill-rule:nonzero;stroke:#ffffff;stroke-width:2;stroke-miterlimit:4;stroke-dasharray:none;stroke-opacity:0.99215686"
       id="rect4205"
       width="57.361439"
       height="70.292473"
       x="185.25031"
       y="169.07803" />
    <path
       style="fill:#ffffff;fill-rule:evenodd;stroke:none;stroke-width:1px;stroke-linecap:butt;stroke-linejoin:miter;stroke-opacity:1"
       d="m 216.6889,205.20879 -0.52438,-0.58001 0.047,1.75178 -1.68813,-2.43855 -0.87971,2.00354 -1.50225,-2.52562 -1.07738,2.55138 c -0.26964,0.63789 -0.46635,0.88711 -0.60919,0.90072 -0.14284,0.0136 -0.23222,-0.2087 -0.28783,-0.50948 -0.11126,-0.60158 -0.088,-1.52229 -0.088,-1.52229 l -1.02554,0.52666 -0.69089,-1.8601 -0.66262,0.69811 c 0.27964,7.15862 0.37344,15.02035 0.37344,15.02035 l 0.0943,20.12424 12.19132,0.15978 -0.56629,-1.69083 -2.32208,-22.46916 c 0,0 -0.42725,-4.73658 -0.7817,-10.14052 z"
       id="path4218"
       inkscape:connector-curvature="0" />
    <path
       style="fill:#ffffff;fill-rule:evenodd;stroke:none;stroke-width:1px;stroke-linecap:butt;stroke-linejoin:miter;stroke-opacity:1"
       d="m 206.03692,171.05041 c -1.46804,-0.18185 -3.27985,0.11757 -4.26757,1.21875 -1.20447,1.34282 -1.26255,3.56411 -0.91407,5.33399 0.37032,1.88079 2.3571,3.08845 3.04688,4.87695 1.44856,3.75589 1.66588,7.88857 2.13476,11.88672 0.21137,1.80232 0.30715,4.41139 0.46094,6.78711 l 0.64453,-0.71485 0.73828,1.8418 1.01172,-0.55273 c 0,0 3.4e-4,0.92099 0.12696,1.51953 0.0633,0.29926 0.15834,0.51922 0.30078,0.50195 0.14244,-0.0173 0.33271,-0.27144 0.58593,-0.91602 l 1.01172,-2.57812 1.56641,2.48633 0.82813,-2.02539 1.75,2.39453 -0.0918,-1.75 0.53906,0.5664 c -0.35335,-3.86801 -0.72145,-8.10938 -0.63476,-11.0664 0.0977,-3.33193 0.58297,-7.18511 0.76171,-10.51367 0.0899,-1.67469 1.36781,-3.74912 -0.22851,-5.86719 -0.90903,-1.20615 -2.59058,-0.6619 -3.96094,-1.29688 -2.02379,-0.93774 -3.19659,-1.8586 -5.41016,-2.13281 z"
       id="path4209"
       inkscape:connector-curvature="0" />
    <path
       style="fill:#ffffff;fill-rule:evenodd;stroke:none;stroke-width:1px;stroke-linecap:butt;stroke-linejoin:miter;stroke-opacity:1"
       d="m 216.62766,175.18405 c -0.37558,1.49931 1.16712,9.44982 1.75252,17.67767 0.5854,8.22785 1.37154,31.69789 1.37154,31.69789 0,0 0.39169,7.77018 0.83816,11.50572 0.12296,1.02876 0.2286,2.81929 0.2286,2.81929 l 2.2859,0 1.60013,-0.1524 -2.1335,-28.11664 c 0,0 -1.22575,-17.61868 -1.60015,-26.4403 -0.0883,-2.08146 0.381,-6.09575 0.381,-6.09575 l 0.45718,-2.81928 c 0,0 0.0797,-2.04485 -0.76197,-2.5145 -0.7747,-0.43229 -2.3584,-0.0159 -3.27647,0.60958 -0.59406,0.40474 -0.76736,0.32941 -1.14294,1.82872 z"
       id="path4220"
       inkscape:connector-curvature="0"
       sodipodi:nodetypes="zscsccccsccssz" />
    <path
       sodipodi:nodetypes="scccscccccs"
       inkscape:connector-curvature="0"
       id="path4241"
       d="m 125.30681,207.46452 c 1.49018,-0.0426 2.79821,-0.34193 4.28117,-0.47243 1.71816,-0.16446 4.75251,-0.69901 6.35146,-0.89915 1.422,-0.12461 2.55594,0.95081 3.42286,-0.73833 0.43291,-1.22291 0.62971,-1.86113 -0.0667,-2.92478 -1.02079,-1.55896 -1.68387,0.49344 -3.22186,0.89027 -1.17737,0.73886 -3.83675,1.09998 -5.21144,1.35655 -1.72348,0.45819 -3.15375,0.39763 -4.72563,0.65718 -1.72892,0.0796 -3.06183,0.12066 -4.61673,-0.0932 -4.02749,-2.25724 -3.28183,3.56711 -0.97029,3.45356 1.89289,0.17616 1.69212,-1.14199 4.75722,-1.2297 z"
       style="fill:#ffffff;fill-rule:evenodd;stroke:none;stroke-width:1px;stroke-linecap:butt;stroke-linejoin:miter;stroke-opacity:1" />
    <path
       style="fill:#ffffff;fill-rule:evenodd;stroke:none;stroke-width:1px;stroke-linecap:butt;stroke-linejoin:miter;stroke-opacity:1"
       d="m 124.64933,212.70913 c 1.42003,0.16794 2.70498,0.0562 4.13108,0.13625 1.65422,0.0795 4.61153,-0.0214 6.15792,0.006 1.36739,0.0772 2.28511,1.30081 3.35585,-0.24778 0.59046,-1.14859 0.87097,-1.75214 0.36659,-2.90241 -0.73932,-1.68593 -1.67006,0.25069 -3.18751,0.4264 -1.22559,0.56485 -3.80168,0.54714 -5.14358,0.60713 -1.70245,0.21025 -3.05047,-0.0513 -4.5799,-0.0162 -1.65197,-0.16499 -2.92256,-0.31229 -4.3663,-0.74302 -3.48919,-2.80051 -3.63783,3.06572 -1.42813,3.27926 1.76993,0.4411 1.77319,-0.89104 4.69402,-0.54569 z"
       id="path4243"
       inkscape:connector-curvature="0"
       sodipodi:nodetypes="scccscccccs" />
    <path
       sodipodi:nodetypes="scccscccccs"
       inkscape:connector-curvature="0"
       id="path4245"
       d="m 123.97502,217.74284 c 1.35938,0.27181 2.60818,0.25482 3.97967,0.43938 1.59182,0.20085 4.45488,0.31743 5.94626,0.45842 1.315,0.17746 2.11418,1.46518 3.25837,-5.6e-4 0.65191,-1.10211 0.96574,-1.68342 0.56049,-2.86764 -0.59402,-1.73569 -1.63061,0.12728 -3.1085,0.19102 -1.22374,0.47328 -3.71019,0.26636 -5.01033,0.22762 -1.65901,0.0846 -2.94218,-0.27531 -4.42165,-0.35259 -1.58356,-0.28592 -2.80009,-0.52617 -4.16366,-1.06181 -3.17027,-3.04929 -3.73114,2.79016 -1.61244,3.16547 1.67784,0.56995 1.77576,-0.75836 4.57182,-0.19937 z"
       style="fill:#ffffff;fill-rule:evenodd;stroke:none;stroke-width:1px;stroke-linecap:butt;stroke-linejoin:miter;stroke-opacity:1" />
    <rect
       style="opacity:1;fill:#000080;fill-opacity:1;fill-rule:nonzero;stroke:none;stroke-opacity:0.99215686"
       id="rect4247"
       width="80"
       height="80"
       x="87.371407"
       y="250.47911" />
    <g
       id="g6340"
       transform="matrix(0.54950737,0,0,0.54950737,43.896309,147.25493)">
      <rect
         ry="4.5258622"
         style="opacity:1;fill:#000080;fill-opacity:1;fill-rule:nonzero;stroke:#ffffff;stroke-width:3.63962361;stroke-miterlimit:4;stroke-dasharray:none;stroke-opacity:0.99215686"
         id="rect4249"
         width="57.361439"
         height="70.292473"
         x="98.690681"
         y="255.33287" />
      <path
         sodipodi:nodetypes="ccccccc"
         inkscape:connector-curvature="0"
         id="path4256"
         d="m 136.30264,307.64913 -7.07226,3.16602 -2.13477,-8.38282 -10.22656,5.81641 c 0.74394,9.29921 0.94353,15.49572 0.77929,17.19466 6.12381,0.16519 16.92218,0.0954 19.81055,0 -0.61916,-4.65538 -1.12312,-10.05166 -1.15625,-17.79427 z"
         style="fill:#ffffff;fill-rule:evenodd;stroke:none;stroke-width:1px;stroke-linecap:butt;stroke-linejoin:miter;stroke-opacity:1" />
      <path
         inkscape:connector-curvature="0"
         id="path4251"
         d="m 121.47638,256.2193 c -3.3771,1e-5 -9.19411,1.25588 -11.125,5.33399 -1.46227,5.01536 -0.98606,2.57081 3.49414,14.31641 2.46629,6.46579 3.91376,17.85957 4.71875,27.92187 l 10.22656,-5.81641 2.13477,8.38282 7.07226,-3.16602 c -0.043,-10.04304 0.7737,-20.78838 3.86133,-27.91992 4.9977,-11.54328 -2.70508,-13.56641 -2.70508,-13.56641 -4.35354,-1.64192 -6.84129,1.17335 -8.99023,0.45703 -1.8297,-0.60989 -6.30632,-5.94336 -8.6875,-5.94336 z"
         style="fill:#ffffff;fill-rule:evenodd;stroke:none;stroke-width:1px;stroke-linecap:butt;stroke-linejoin:miter;stroke-opacity:1" />
    </g>
  </g>
</svg>
