<svg xmlns="http://www.w3.org/2000/svg" width="210mm" height="297mm" viewBox="0 0 744.09448819 1052.3622047"><defs><filter id="b" x="-.06" width="1.12" y="-.06" height="1.12" color-interpolation-filters="sRGB"><feGaussianBlur stdDeviation="19.545"/></filter><filter id="a" x="-.043" width="1.086" y="-.043" height="1.086" color-interpolation-filters="sRGB"><feGaussianBlur stdDeviation="14.073"/></filter></defs><path d="M405-219.639a391 391 0 0 0-391 391A391 391 0 0 0 31.955 287.11c9.736-43.803 95.556-93.933 122.373-142.498 30-54.328 166.925-93.188 4.242-106.275-31.42-2.528 32.063-62.804 87.705-120.846 87.107-107.344 152.914-217.607 299.957-51.162C638.55-29.174 736.958 9.22 780.88 64.145A391 391 0 0 0 405-219.64zM795.666 178.04c-13.262 40.898-42.319 92.806-91.893 162.16-44.958 62.897-226.178 171.372-256.617 193.196a4808.516 4808.516 0 0 1-40.761 28.918 391 391 0 0 0 389.271-384.274zm-562.613 45.979c-33.036-1.71-156.727 102.282-191.461 91.304a391 391 0 0 0 92.879 137.729c53.38-80.533 144.188-203.102 103.09-227.809-1.224-.735-2.735-1.133-4.508-1.224zm152.258 159.6c-32.64.586-132.164 65.825-205.05 107.439a391 391 0 0 0 140.536 61.845c43.01-60.702 93.744-135.268 73.96-165.595-1.707-2.619-4.94-3.77-9.446-3.69z" transform="translate(255.597 372.947) scale(.14917)" opacity=".481" fill="#333" filter="url(#a)"/><path d="M401-191.639a391 391 0 0 0-391 391A391 391 0 0 0 27.955 315.11c9.736-43.803 95.556-93.933 122.373-142.498 30-54.328 166.925-93.188 4.242-106.275-31.42-2.528 32.063-62.804 87.705-120.846 87.107-107.344 152.914-217.607 299.957-51.162C634.55-1.174 732.958 37.22 776.88 92.145A391 391 0 0 0 401-191.64zM791.666 206.04c-13.262 40.898-42.319 92.806-91.893 162.16-44.958 62.897-226.178 171.372-256.617 193.196a4808.516 4808.516 0 0 1-40.761 28.918 391 391 0 0 0 389.271-384.274zm-562.613 45.979c-33.036-1.71-156.727 102.282-191.461 91.304a391 391 0 0 0 92.879 137.729c53.38-80.533 144.188-203.102 103.09-227.809-1.224-.735-2.735-1.133-4.508-1.224zm152.258 159.6c-32.64.586-132.164 65.825-205.05 107.439a391 391 0 0 0 140.536 61.845c43.01-60.702 93.744-135.268 73.96-165.595-1.707-2.619-4.94-3.77-9.446-3.69z" transform="translate(255.597 372.947) scale(.14917)" opacity=".815" fill="#333" filter="url(#b)"/><path d="M315.713 340.482a58.326 58.326 0 0 0-58.326 58.326 58.326 58.326 0 0 0 2.679 17.266c1.452-6.534 14.254-14.012 18.254-21.257 4.475-8.104 24.9-13.9.633-15.853-4.687-.377 4.783-9.368 13.083-18.027 12.994-16.012 22.81-32.46 44.745-7.631 13.77 15.588 28.45 21.315 35.002 29.508a58.326 58.326 0 0 0-56.07-42.332zm58.276 59.322c-1.978 6.1-6.313 13.844-13.708 24.19-6.706 9.382-33.739 25.563-38.28 28.818a716.98 716.98 0 0 1-6.08 4.314 58.326 58.326 0 0 0 58.068-57.322zm-83.925 6.858c-4.928-.255-23.38 15.258-28.56 13.62a58.326 58.326 0 0 0 13.854 20.546c7.963-12.014 21.509-30.297 15.378-33.983a1.434 1.434 0 0 0-.673-.183zm22.712 23.808c-4.869.088-19.715 9.82-30.587 16.027a58.326 58.326 0 0 0 20.963 9.225c6.416-9.055 13.984-20.178 11.033-24.702-.255-.39-.737-.562-1.41-.55z" fill="#666"/><g transform="rotate(43.9 -276.233 532.642) scale(.14917)" fill="maroon"><path d="M339 312.299c-4.912 2.478-7.953 5.921-7.953 9.744v151.639c0 7.579 11.936 13.68 26.762 13.68h28.478c14.825 0 26.76-6.101 26.76-13.68V322.043c0-3.822-3.04-7.265-7.951-9.742v.135c0 2.479-9.738 4.474-21.832 4.474H360.83c-12.094 0-21.83-1.995-21.83-4.474v-.137z"/><rect rx="18.519" ry="3.966" y="240.814" x="344.013" height="70.096" width="56.068"/><rect ry="15.089" y="-98.638" x="132.547" height="149" width="479"/><path d="M627.895-38.08c-4.1-.106-7.974.556-12.538.447l-.714 29.99c4.183.1 6.762.402 9.074.618.115 1.34.237 1.511.28 3.607l-.845 69.133-252.716 43.869A15.002 15.002 0 0 0 358 124.227l-1 111 30 .271.887-98.496 252.677-43.861a15.002 15.002 0 0 0 12.434-14.596l1-82a15.002 15.002 0 0 0 0-.467c-.11-5.792-.31-10.427-1.648-15.465-1.338-5.037-5.11-11.367-10.57-14.54-5.461-3.175-9.786-4.047-13.885-4.153z" style="line-height:normal;text-indent:0;text-align:start;text-decoration-line:none;text-decoration-style:solid;text-decoration-color:#000;text-transform:none;block-progression:tb;isolation:auto;mix-blend-mode:normal" color="#000" font-weight="400" font-family="sans-serif" white-space="normal" overflow="visible" fill-rule="evenodd" enable-background="accumulate"/></g><text style="line-height:75%;text-align:center" x="316.942" y="469.771" font-weight="400" font-size="8.255" font-family="sans-serif" letter-spacing="-.946" word-spacing="0" text-anchor="middle" fill="#666"><tspan x="318.6" y="469.771" style="line-height:75%;-inkscape-font-specification:'URW Gothic L Semi-Bold';text-align:center" font-weight="600" font-size="18.646" font-family="URW Gothic L">NOS ESTAMOS </tspan><tspan x="316.158" y="484.879" style="line-height:75%;-inkscape-font-specification:'URW Gothic L Semi-Bold';text-align:center" font-weight="600" font-size="20.511" font-family="URW Gothic L" letter-spacing="-1.568">RENOVANDO</tspan></text></svg>