<svg xmlns="http://www.w3.org/2000/svg" width="35.755" height="43.335" viewBox="0 0 33.520533 40.626233"><g transform="matrix(.5495 0 0 .5495 -53.231 -139.307)"><rect ry="4.526" width="57.361" height="70.292" x="98.691" y="255.333" fill="none" stroke="#fff" stroke-width="3.64" stroke-opacity=".992"/><path d="M136.303 307.65l-7.073 3.165-2.134-8.383-10.227 5.817c.744 9.299.944 15.495.78 17.194 6.123.166 16.922.096 19.81 0-.62-4.655-1.123-10.051-1.156-17.794z" fill="#fff" fill-rule="evenodd"/><path d="M121.476 256.22c-3.377 0-9.194 1.255-11.125 5.333-1.462 5.016-.986 2.571 3.495 14.317 2.466 6.465 3.913 17.86 4.718 27.922l10.227-5.817 2.135 8.383 7.072-3.166c-.043-10.043.774-20.788 3.861-27.92 4.998-11.543-2.705-13.566-2.705-13.566-4.353-1.642-6.841 1.173-8.99.457-1.83-.61-6.306-5.944-8.688-5.944z" fill="#fff" fill-rule="evenodd"/></g></svg>