<svg xmlns="http://www.w3.org/2000/svg" width="53.333" height="66.85" viewBox="0 0 49.999998 62.671879"><defs><clipPath id="a"><path d="M201.261 497.881a6.216 6.216 0 0 0-6.218-6.217 6.215 6.215 0 0 0-6.217 6.217 6.218 6.218 0 1 0 12.435 0"/></clipPath><clipPath id="b"><path d="M203.737 505.144a2.426 2.426 0 1 0-4.852.005 2.426 2.426 0 0 0 4.852-.005"/></clipPath><clipPath id="c"><path d="M199.274 514.294a4.232 4.232 0 0 0-8.46 0 4.23 4.23 0 1 0 8.46 0"/></clipPath></defs><g fill="#fff"><path d="M15.747 0C7.051 0 0 6.69 0 14.945V47.73c0 8.25 7.05 14.942 15.747 14.942H34.25C42.946 62.672 50 55.98 50 47.73V14.945C50 6.69 42.946 0 34.249 0H15.747zm3.58 8.533h15.09c7.095 0 12.852 5.463 12.852 12.196v26.746c0 6.732-5.757 12.195-12.852 12.195h-15.09c-7.096 0-12.852-5.463-12.852-12.195V20.729c0-6.733 5.756-12.196 12.852-12.196z"/><g clip-path="url(#a)" transform="matrix(1.38466 0 0 -1.31397 -250.658 701.232)"><path d="M188.826 491.664v12.439h12.435v-12.44h-12.435z"/></g><g clip-path="url(#b)" transform="matrix(1.38466 0 0 -1.31397 -250.658 701.232)"><path d="M198.884 502.72v4.851h4.853v-4.85h-4.853z"/></g><g clip-path="url(#c)" transform="matrix(1.38466 0 0 -1.31397 -250.658 701.232)"><path d="M190.814 510.064v8.461h8.46v-8.461h-8.46z"/></g></g></svg>